# xmcd CD database file generated by Grip 3.3.1
# 
# Track frame offsets:
#       151
#       11496
#       21009
#       31035
#       41447
#       50868
#       61694
#       72499
#       86303
#       103038
#       119404
#       133438
#       145007
#       157759
#       174421
#       187923
#       198868
# 
# Disc length: 2894 seconds
# 
# Revision: 1
# Processed by: cddbd v1.5.1PL2 Copyright (c) Steve Scherf et al.
# Submitted via: Grip 3.3.1
# 
DISCID=d90b4c11
DTITLE=Waylon Jennings - Legendary Waylon Jennings (1)
DYEAR=2001
DGENRE=Country
TTITLE0=Anita, Your Dreaming
TTITLE1=Destiny's Child
TTITLE2=Ruby Don't Take Your Love Yo Town
TTITLE3=Don't Waste Your Time
TTITLE4=Brown Eyed Handsome Man
TTITLE5=Only Daddy That'll Walk The Line
TTITLE6=The Taker
TTITLE7=A Good Hearted Woman
TTITLE8=Lonesome, Onry And Mean
TTITLE9=Honky Talk Heroes (Like Me)
TTITLE10=Old Five And Dimers (Like Me)
TTITLE11=You Asked Me To
TTITLE12=I'm A Ramblin' Man
TTITLE13=I Can't Keep My Hands Off Of You
TTITLE14=Amanda
TTITLE15=This Time
TTITLE16=Louisiana Woman
EXTD=
EXTT0=
EXTT1=
EXTT2=
EXTT3=
EXTT4=
EXTT5=
EXTT6=
EXTT7=
EXTT8=
EXTT9=
EXTT10=
EXTT11=
EXTT12=
EXTT13=
EXTT14=
EXTT15=
EXTT16=
PLAYORDER=
